<svg xmlns="http://www.w3.org/2000/svg" fill="none" viewBox="0 0 25 24" id="JiraSoftware"><path fill="url(#paint0_linear_11_3058)" fill-rule="evenodd" d="M11.9635 1C11.8186 1 11.6807 1.0629 11.5858 1.1724C11.4908 1.2819 11.448 1.42722 11.4685 1.57071L11.4779 1.6364C11.7946 3.85332 13.6933 5.5 15.9327 5.5H18.9635V8.53082C18.9635 10.7702 20.6102 12.6689 22.8271 12.9856L22.8928 12.995C23.0363 13.0155 23.1816 12.9727 23.2911 12.8777C23.4006 12.7828 23.4635 12.6449 23.4635 12.5V2.5C23.4635 1.67157 22.7919 1 21.9635 1H11.9635ZM6.96353 6.5C6.81859 6.5 6.68078 6.5629 6.58581 6.6724C6.49084 6.7819 6.44806 6.92722 6.46856 7.07071L6.47794 7.1364C6.79465 9.35332 8.69329 11 10.9327 11H13.4635V13.5308C13.4635 15.7702 15.1102 17.6689 17.3271 17.9856L17.3928 17.995C17.5363 18.0155 17.6816 17.9727 17.7911 17.8777C17.9006 17.7828 17.9635 17.6449 17.9635 17.5V8C17.9635 7.17157 17.2919 6.5 16.4635 6.5H6.96353ZM1.96353 12C1.81859 12 1.68077 12.0629 1.58581 12.1724C1.49084 12.2819 1.44806 12.4272 1.46856 12.5707L1.47794 12.6364C1.79465 14.8533 3.69329 16.5 5.93271 16.5H7.96353V18.5308C7.96353 20.7702 9.61022 22.6689 11.8271 22.9856L11.8928 22.995C12.0363 23.0155 12.1816 22.9727 12.2911 22.8777C12.4006 22.7828 12.4635 22.6449 12.4635 22.5V13.5C12.4635 12.6716 11.7919 12 10.9635 12H1.96353Z" clip-rule="evenodd"></path><defs><linearGradient id="paint0_linear_11_3058" x1="1.464" x2="23.463" y1="12" y2="12" gradientUnits="userSpaceOnUse"><stop stop-color="#7c3aed" class="stopColored6d6b svgShape"></stop><stop offset="1" stop-color="#a376f0" class="stopColorf0b076 svgShape"></stop></linearGradient></defs></svg>