<svg xmlns="http://www.w3.org/2000/svg" xmlns:xlink="http://www.w3.org/1999/xlink" width="500" zoomAndPan="magnify" viewBox="0 0 375 374.999991" height="500" preserveAspectRatio="xMidYMid meet" version="1.0"><defs><g/><clipPath id="699dad184c"><path d="M 163.558594 151.992188 L 229.042969 151.992188 L 229.042969 247.839844 L 163.558594 247.839844 Z M 163.558594 151.992188 " clip-rule="nonzero"/></clipPath><clipPath id="830d3cbc19"><path d="M 61.519531 164.34375 L 157.738281 164.34375 L 157.738281 247.839844 L 61.519531 247.839844 Z M 61.519531 164.34375 " clip-rule="nonzero"/></clipPath><clipPath id="82f5eda86e"><path d="M 109.472656 164.34375 C 82.988281 164.34375 61.519531 183.035156 61.519531 206.09375 C 61.519531 229.148438 82.988281 247.839844 109.472656 247.839844 C 135.953125 247.839844 157.421875 229.148438 157.421875 206.09375 C 157.421875 183.035156 135.953125 164.34375 109.472656 164.34375 Z M 109.472656 164.34375 " clip-rule="nonzero"/></clipPath><clipPath id="c718c37ac7"><path d="M 115.925781 247.839844 L 355.066406 247.839844 L 355.066406 269.417969 L 115.925781 269.417969 Z M 115.925781 247.839844 " clip-rule="nonzero"/></clipPath><clipPath id="367803f8a1"><path d="M 163.558594 269.417969 L 204.050781 269.417969 L 204.050781 277.390625 L 163.558594 277.390625 Z M 163.558594 269.417969 " clip-rule="nonzero"/></clipPath><clipPath id="3e314b041e"><path d="M 193.347656 91.730469 L 267.738281 91.730469 L 267.738281 119.625 L 193.347656 119.625 Z M 193.347656 91.730469 " clip-rule="nonzero"/></clipPath><clipPath id="279f62429b"><path d="M 134.570312 61.71875 L 363.957031 61.71875 L 363.957031 69.6875 L 134.570312 69.6875 Z M 134.570312 61.71875 " clip-rule="nonzero"/></clipPath><clipPath id="7283f1dfbe"><path d="M 94.730469 69.6875 L 355.066406 69.6875 L 355.066406 91.730469 L 94.730469 91.730469 Z M 94.730469 69.6875 " clip-rule="nonzero"/></clipPath></defs><rect x="-37.5" width="450" fill="#ffffff" y="-37.499999" height="449.999989" fill-opacity="1"/><rect x="-37.5" width="450" fill="#ffffff" y="-37.499999" height="449.999989" fill-opacity="1"/><g fill="#000000" fill-opacity="1"><g transform="translate(367.875742, 69.391284)"><g><path d="M -9 19.703125 L -137.890625 177.296875 L -11.53125 177.296875 L -11.53125 199.8125 L -167.453125 199.8125 L -167.453125 180.109375 L -40.8125 22.515625 L -167.453125 22.515625 L -167.453125 0 L -9 0 Z M -9 19.703125 "/></g></g></g><g fill="#000000" fill-opacity="1"><g transform="translate(48.161696, 322.499059)"><g><path d="M 21.640625 0.28125 C 18.671875 0.28125 15.992188 -0.289062 13.609375 -1.4375 C 11.222656 -2.59375 9.164062 -4.160156 7.4375 -6.140625 C 5.707031 -8.117188 4.367188 -10.347656 3.421875 -12.828125 C 2.484375 -15.316406 2.015625 -17.867188 2.015625 -20.484375 C 2.015625 -23.210938 2.515625 -25.816406 3.515625 -28.296875 C 4.515625 -30.773438 5.898438 -32.984375 7.671875 -34.921875 C 9.441406 -36.867188 11.523438 -38.410156 13.921875 -39.546875 C 16.328125 -40.679688 18.9375 -41.25 21.75 -41.25 C 24.664062 -41.25 27.328125 -40.648438 29.734375 -39.453125 C 32.140625 -38.265625 34.195312 -36.671875 35.90625 -34.671875 C 37.625 -32.671875 38.953125 -30.4375 39.890625 -27.96875 C 40.828125 -25.507812 41.296875 -22.992188 41.296875 -20.421875 C 41.296875 -17.691406 40.804688 -15.085938 39.828125 -12.609375 C 38.847656 -10.128906 37.472656 -7.914062 35.703125 -5.96875 C 33.941406 -4.03125 31.859375 -2.503906 29.453125 -1.390625 C 27.046875 -0.273438 24.441406 0.28125 21.640625 0.28125 Z M 8.59375 -20.484375 C 8.59375 -18.554688 8.898438 -16.6875 9.515625 -14.875 C 10.128906 -13.070312 11.003906 -11.46875 12.140625 -10.0625 C 13.273438 -8.65625 14.648438 -7.546875 16.265625 -6.734375 C 17.878906 -5.929688 19.6875 -5.53125 21.6875 -5.53125 C 23.769531 -5.53125 25.617188 -5.953125 27.234375 -6.796875 C 28.847656 -7.648438 30.203125 -8.796875 31.296875 -10.234375 C 32.390625 -11.679688 33.222656 -13.296875 33.796875 -15.078125 C 34.378906 -16.867188 34.671875 -18.671875 34.671875 -20.484375 C 34.671875 -22.398438 34.367188 -24.253906 33.765625 -26.046875 C 33.171875 -27.835938 32.296875 -29.429688 31.140625 -30.828125 C 29.992188 -32.234375 28.617188 -33.335938 27.015625 -34.140625 C 25.421875 -34.953125 23.644531 -35.359375 21.6875 -35.359375 C 19.613281 -35.359375 17.769531 -34.9375 16.15625 -34.09375 C 14.539062 -33.25 13.175781 -32.113281 12.0625 -30.6875 C 10.945312 -29.269531 10.085938 -27.675781 9.484375 -25.90625 C 8.890625 -24.132812 8.59375 -22.328125 8.59375 -20.484375 Z M 8.59375 -20.484375 "/></g></g></g><g fill="#000000" fill-opacity="1"><g transform="translate(97.080993, 322.499059)"><g><path d="M 4.609375 0 L 4.609375 -40.953125 L 11.078125 -40.953125 L 11.078125 -5.71875 L 33.0625 -5.71875 L 33.0625 0 Z M 4.609375 0 "/></g></g></g><g fill="#000000" fill-opacity="1"><g transform="translate(136.308917, 322.499059)"><g><path d="M 4.609375 0 L 4.609375 -40.953125 L 11.078125 -40.953125 L 11.078125 0 Z M 4.609375 0 "/></g></g></g><g fill="#000000" fill-opacity="1"><g transform="translate(157.53854, 322.499059)"><g><path d="M 28.84375 -31.328125 C 28.457031 -31.742188 27.898438 -32.191406 27.171875 -32.671875 C 26.441406 -33.160156 25.578125 -33.613281 24.578125 -34.03125 C 23.578125 -34.457031 22.5 -34.804688 21.34375 -35.078125 C 20.1875 -35.347656 18.992188 -35.484375 17.765625 -35.484375 C 15.078125 -35.484375 13.078125 -34.984375 11.765625 -33.984375 C 10.460938 -32.984375 9.8125 -31.597656 9.8125 -29.828125 C 9.8125 -28.515625 10.175781 -27.484375 10.90625 -26.734375 C 11.632812 -25.984375 12.75 -25.359375 14.25 -24.859375 C 15.75 -24.359375 17.632812 -23.820312 19.90625 -23.25 C 22.675781 -22.59375 25.078125 -21.8125 27.109375 -20.90625 C 29.148438 -20.007812 30.707031 -18.8125 31.78125 -17.3125 C 32.863281 -15.8125 33.40625 -13.828125 33.40625 -11.359375 C 33.40625 -9.285156 33.019531 -7.5 32.25 -6 C 31.476562 -4.5 30.398438 -3.273438 29.015625 -2.328125 C 27.628906 -1.390625 26.03125 -0.695312 24.21875 -0.25 C 22.414062 0.1875 20.476562 0.40625 18.40625 0.40625 C 16.363281 0.40625 14.332031 0.195312 12.3125 -0.21875 C 10.289062 -0.644531 8.367188 -1.269531 6.546875 -2.09375 C 4.722656 -2.925781 3.039062 -3.941406 1.5 -5.140625 L 4.4375 -10.671875 C 4.9375 -10.171875 5.65625 -9.625 6.59375 -9.03125 C 7.539062 -8.4375 8.640625 -7.867188 9.890625 -7.328125 C 11.140625 -6.785156 12.503906 -6.332031 13.984375 -5.96875 C 15.460938 -5.601562 16.972656 -5.421875 18.515625 -5.421875 C 21.085938 -5.421875 23.054688 -5.875 24.421875 -6.78125 C 25.796875 -7.6875 26.484375 -8.984375 26.484375 -10.671875 C 26.484375 -12.054688 26.039062 -13.160156 25.15625 -13.984375 C 24.269531 -14.816406 22.976562 -15.519531 21.28125 -16.09375 C 19.59375 -16.664062 17.578125 -17.242188 15.234375 -17.828125 C 12.535156 -18.554688 10.28125 -19.351562 8.46875 -20.21875 C 6.664062 -21.082031 5.3125 -22.195312 4.40625 -23.5625 C 3.507812 -24.925781 3.0625 -26.664062 3.0625 -28.78125 C 3.0625 -31.476562 3.710938 -33.757812 5.015625 -35.625 C 6.328125 -37.488281 8.109375 -38.890625 10.359375 -39.828125 C 12.609375 -40.773438 15.132812 -41.25 17.9375 -41.25 C 19.78125 -41.25 21.53125 -41.046875 23.1875 -40.640625 C 24.84375 -40.234375 26.390625 -39.679688 27.828125 -38.984375 C 29.273438 -38.296875 30.59375 -37.507812 31.78125 -36.625 Z M 28.84375 -31.328125 "/></g></g></g><g fill="#000000" fill-opacity="1"><g transform="translate(198.324007, 322.499059)"><g><path d="M 32.703125 -5.71875 L 32.703125 0 L 4.609375 0 L 4.609375 -40.953125 L 32.1875 -40.953125 L 32.1875 -35.25 L 11.078125 -35.25 L 11.078125 -23.59375 L 29.359375 -23.59375 L 29.359375 -18.234375 L 11.078125 -18.234375 L 11.078125 -5.71875 Z M 32.703125 -5.71875 "/></g></g></g><g fill="#000000" fill-opacity="1"><g transform="translate(238.647966, 322.499059)"><g><path d="M 36.796875 -10.5625 C 36.796875 -8.363281 36.226562 -6.472656 35.09375 -4.890625 C 33.96875 -3.316406 32.441406 -2.109375 30.515625 -1.265625 C 28.585938 -0.421875 26.472656 0 24.171875 0 L 4.609375 0 L 4.609375 -40.953125 L 25.734375 -40.953125 C 27.648438 -40.953125 29.3125 -40.441406 30.71875 -39.421875 C 32.125 -38.410156 33.203125 -37.101562 33.953125 -35.5 C 34.703125 -33.90625 35.078125 -32.242188 35.078125 -30.515625 C 35.078125 -28.515625 34.566406 -26.640625 33.546875 -24.890625 C 32.523438 -23.140625 31.070312 -21.84375 29.1875 -21 C 31.53125 -20.300781 33.382812 -19.039062 34.75 -17.21875 C 36.113281 -15.394531 36.796875 -13.175781 36.796875 -10.5625 Z M 30.171875 -11.765625 C 30.171875 -12.921875 29.929688 -13.96875 29.453125 -14.90625 C 28.972656 -15.851562 28.316406 -16.625 27.484375 -17.21875 C 26.660156 -17.8125 25.691406 -18.109375 24.578125 -18.109375 L 11.078125 -18.109375 L 11.078125 -5.59375 L 24.171875 -5.59375 C 25.328125 -5.59375 26.351562 -5.867188 27.25 -6.421875 C 28.15625 -6.984375 28.867188 -7.734375 29.390625 -8.671875 C 29.910156 -9.617188 30.171875 -10.648438 30.171875 -11.765625 Z M 11.078125 -35.359375 L 11.078125 -23.3125 L 22.953125 -23.3125 C 24.035156 -23.3125 25 -23.566406 25.84375 -24.078125 C 26.6875 -24.597656 27.359375 -25.3125 27.859375 -26.21875 C 28.359375 -27.125 28.609375 -28.15625 28.609375 -29.3125 C 28.609375 -30.5 28.378906 -31.546875 27.921875 -32.453125 C 27.460938 -33.359375 26.835938 -34.066406 26.046875 -34.578125 C 25.253906 -35.097656 24.34375 -35.359375 23.3125 -35.359375 Z M 11.078125 -35.359375 "/></g></g></g><g fill="#000000" fill-opacity="1"><g transform="translate(283.12539, 322.499059)"><g><path d="M 1.78125 -4.96875 L 26.53125 -35.25 L 2.359375 -35.25 L 2.359375 -40.953125 L 34.203125 -40.953125 L 34.203125 -36 L 10.09375 -5.71875 L 34.265625 -5.71875 L 34.265625 0 L 1.78125 0 Z M 1.78125 -4.96875 "/></g></g></g><g clip-path="url(#699dad184c)"><path fill="#ffffff" d="M 163.558594 151.992188 L 229.042969 151.992188 L 229.042969 247.917969 L 163.558594 247.917969 Z M 163.558594 151.992188 " fill-opacity="1" fill-rule="nonzero"/></g><g fill="#000000" fill-opacity="1"><g transform="translate(269.214215, 69.391284)"><g><path d="M -141.28125 157.875 C -139.019531 160.5 -136.015625 163.03125 -132.265625 165.46875 C -128.515625 167.914062 -124.289062 170.125 -119.59375 172.09375 C -114.90625 174.0625 -109.796875 175.65625 -104.265625 176.875 C -98.734375 178.09375 -92.960938 178.703125 -86.953125 178.703125 C -71.566406 178.703125 -60.21875 175.789062 -52.90625 169.96875 C -45.59375 164.15625 -41.9375 156.1875 -41.9375 146.0625 C -41.9375 138.925781 -43.8125 133.296875 -47.5625 129.171875 C -51.3125 125.046875 -57.078125 121.664062 -64.859375 119.03125 C -72.648438 116.40625 -82.550781 113.6875 -94.5625 110.875 C -108.445312 107.875 -120.453125 104.21875 -130.578125 99.90625 C -140.710938 95.59375 -148.5 89.820312 -153.9375 82.59375 C -159.375 75.375 -162.09375 65.757812 -162.09375 53.75 C -162.09375 44.1875 -160.265625 35.882812 -156.609375 28.84375 C -152.953125 21.8125 -147.835938 15.992188 -141.265625 11.390625 C -134.703125 6.796875 -127.007812 3.421875 -118.1875 1.265625 C -109.375 -0.890625 -99.804688 -1.96875 -89.484375 -1.96875 C -79.359375 -1.96875 -69.460938 -0.890625 -59.796875 1.265625 C -50.140625 3.421875 -40.992188 6.5625 -32.359375 10.6875 C -23.734375 14.820312 -15.664062 19.984375 -8.15625 26.171875 L -20.265625 47.5625 C -23.265625 44.375 -27.15625 41.226562 -31.9375 38.125 C -36.726562 35.03125 -42.171875 32.171875 -48.265625 29.546875 C -54.359375 26.921875 -60.96875 24.8125 -68.09375 23.21875 C -75.226562 21.625 -82.550781 20.828125 -90.0625 20.828125 C -104.3125 20.828125 -115.375 23.40625 -123.25 28.5625 C -131.132812 33.71875 -135.078125 41.269531 -135.078125 51.21875 C -135.078125 58.71875 -132.875 64.71875 -128.46875 69.21875 C -124.0625 73.726562 -117.539062 77.484375 -108.90625 80.484375 C -100.28125 83.484375 -89.773438 86.484375 -77.390625 89.484375 C -63.878906 92.867188 -52.523438 96.578125 -43.328125 100.609375 C -34.140625 104.640625 -27.25 109.9375 -22.65625 116.5 C -18.0625 123.070312 -15.765625 131.613281 -15.765625 142.125 C -15.765625 154.875 -18.859375 165.65625 -25.046875 174.46875 C -31.234375 183.289062 -39.769531 189.953125 -50.65625 194.453125 C -61.539062 198.960938 -73.828125 201.21875 -87.515625 201.21875 C -96.523438 201.21875 -104.921875 200.28125 -112.703125 198.40625 C -120.492188 196.53125 -127.765625 193.898438 -134.515625 190.515625 C -141.273438 187.140625 -147.46875 183.109375 -153.09375 178.421875 Z M -141.28125 157.875 "/></g></g></g><g clip-path="url(#830d3cbc19)"><g clip-path="url(#82f5eda86e)"><path fill="#ffffff" d="M 61.519531 164.34375 L 157.410156 164.34375 L 157.410156 247.839844 L 61.519531 247.839844 Z M 61.519531 164.34375 " fill-opacity="1" fill-rule="nonzero"/></g></g><g clip-path="url(#c718c37ac7)"><path fill="#000000" d="M 115.925781 247.839844 L 355.058594 247.839844 L 355.058594 269.417969 L 115.925781 269.417969 Z M 115.925781 247.839844 " fill-opacity="1" fill-rule="nonzero"/></g><g fill="#000000" fill-opacity="1"><g transform="translate(211.490381, 69.391284)"><g><path d="M -104.96875 -1.40625 C -90.894531 -1.40625 -78.132812 1.40625 -66.6875 7.03125 C -55.25 12.664062 -45.351562 20.3125 -37 29.96875 C -28.65625 39.632812 -22.226562 50.515625 -17.71875 62.609375 C -13.21875 74.710938 -10.96875 87.144531 -10.96875 99.90625 C -10.96875 113.226562 -13.359375 125.9375 -18.140625 138.03125 C -22.929688 150.132812 -29.59375 160.921875 -38.125 170.390625 C -46.664062 179.867188 -56.65625 187.375 -68.09375 192.90625 C -79.539062 198.445312 -92.019531 201.21875 -105.53125 201.21875 C -119.601562 201.21875 -132.359375 198.304688 -143.796875 192.484375 C -155.242188 186.671875 -165.09375 178.882812 -173.34375 169.125 C -181.601562 159.375 -187.984375 148.492188 -192.484375 136.484375 C -196.992188 124.484375 -199.25 112.195312 -199.25 99.625 C -199.25 86.300781 -196.898438 73.585938 -192.203125 61.484375 C -187.515625 49.390625 -180.898438 38.601562 -172.359375 29.125 C -163.828125 19.65625 -153.835938 12.195312 -142.390625 6.75 C -130.953125 1.3125 -118.476562 -1.40625 -104.96875 -1.40625 Z M -36.578125 99.90625 C -36.578125 89.769531 -38.21875 79.960938 -41.5 70.484375 C -44.789062 61.015625 -49.4375 52.617188 -55.4375 45.296875 C -61.445312 37.984375 -68.671875 32.171875 -77.109375 27.859375 C -85.554688 23.546875 -94.9375 21.390625 -105.25 21.390625 C -115.945312 21.390625 -125.515625 23.640625 -133.953125 28.140625 C -142.398438 32.640625 -149.578125 38.640625 -155.484375 46.140625 C -161.390625 53.648438 -165.890625 62.09375 -168.984375 71.46875 C -172.085938 80.851562 -173.640625 90.332031 -173.640625 99.90625 C -173.640625 110.03125 -171.992188 119.785156 -168.703125 129.171875 C -165.421875 138.554688 -160.734375 146.953125 -154.640625 154.359375 C -148.546875 161.765625 -141.320312 167.578125 -132.96875 171.796875 C -124.625 176.023438 -115.382812 178.140625 -105.25 178.140625 C -94.550781 178.140625 -84.976562 175.929688 -76.53125 171.515625 C -68.09375 167.109375 -60.921875 161.15625 -55.015625 153.65625 C -49.109375 146.15625 -44.554688 137.757812 -41.359375 128.46875 C -38.171875 119.175781 -36.578125 109.65625 -36.578125 99.90625 Z M -36.578125 99.90625 "/></g></g></g><g clip-path="url(#367803f8a1)"><path fill="#ffffff" d="M 163.558594 269.417969 L 204.039062 269.417969 L 204.039062 277.390625 L 163.558594 277.390625 Z M 163.558594 269.417969 " fill-opacity="1" fill-rule="nonzero"/></g><g clip-path="url(#3e314b041e)"><path fill="#ffffff" d="M 193.347656 91.730469 L 267.777344 91.730469 L 267.777344 119.625 L 193.347656 119.625 Z M 193.347656 91.730469 " fill-opacity="1" fill-rule="nonzero"/></g><g clip-path="url(#279f62429b)"><path fill="#ffffff" d="M 134.570312 61.71875 L 363.964844 61.71875 L 363.964844 69.6875 L 134.570312 69.6875 Z M 134.570312 61.71875 " fill-opacity="1" fill-rule="nonzero"/></g><g clip-path="url(#7283f1dfbe)"><path fill="#000000" d="M 94.730469 69.6875 L 355.066406 69.6875 L 355.066406 91.730469 L 94.730469 91.730469 Z M 94.730469 69.6875 " fill-opacity="1" fill-rule="nonzero"/></g></svg>